<?xml version="1.0" encoding="iso-8859-1"?>
<!-- Generator: Adobe Illustrator 19.0.0, SVG Export Plug-In . SVG Version: 6.00 Build 0)  -->
<svg version="1.1" id="Layer_1" xmlns="http://www.w3.org/2000/svg" xmlns:xlink="http://www.w3.org/1999/xlink" x="0px" y="0px"
	 viewBox="0 0 488 488" style="enable-background:new 0 0 488 488;" xml:space="preserve">
<g transform="translate(0 -540.36)">
	<g>
		<g>
			<path d="M339,776.63c3.9,3.9,10.2,3.8,14.1-0.1c7.4-7.5,15.1-9.5,18.6-7.6c4.1,2.3,5.3,9.6,2.9,17.9c-1.6,5.3,1.5,10.9,6.8,12.4
				c0.9,0.3,1.9,0.4,2.8,0.4v0c4.3,0,8.3-2.8,9.6-7.1c5.2-17.9,0.3-34-12.4-41c-12.4-6.9-29.1-2.6-42.5,11
				C335,766.43,335.1,772.73,339,776.63z"/>
			<path d="M486,728.63L486,728.63c-2-2.7-5.2-4.2-8.5-4c-42.4,2.2-86.5-8.3-124.2-29.7c-36.1-20.5-65.7-50.3-85.5-86
				c-1.6-2.9-4.6-4.8-7.9-5.1s-6.5,1.1-8.6,3.7c-12.6,15.5-22.2,29.7-29.3,43.4c-12.5,22.2-21.5,43.3-27.4,64.3
				c-19,8.3-39.3,14.1-60.6,17.3c-40.9,5.9-83.5,0.7-119.8-14.8c-3-1.3-6.5-1-9.2,0.7s-4.5,4.7-4.7,8c-0.8,17.8,0,35.3,2.4,52.3
				c10.2,68.9,42.4,129.4,86.1,161.8c21.7,16.1,45.2,24.4,68.5,24.4c4.9,0,9.8-0.4,14.7-1.1c32.1-4.6,60.1-24.8,80.4-57.6
				c12,4.7,24.9,7,38.4,7c22.1,0,45.8-6.3,69.6-18.7c40.8-21.3,77.8-58.4,104.2-104.6c0.1-0.1,0.1-0.2,0.2-0.4
				c9.1-17.6,16.7-34.9,22.7-51.6C488.5,734.83,488,731.33,486,728.63z M241.5,884.83c-0.1,0.1-0.1,0.2-0.2,0.3
				c-0.6,1.1-1.2,2.2-1.8,3.4c-17.4,31.8-42.1,51.4-70.5,55.4v0c-22.8,3.4-46.4-3.3-68.3-19.6c-39.6-29.3-68.8-84.8-78.2-148.5
				c-1.6-11.2-2.4-22.7-2.5-34.5c36.4,12.7,77.4,16.6,116.9,10.9c26.6-4,51.9-11.8,75.1-23.1c14.7-7,28.3-15.4,41.3-25.4
				c0.4,1.5,0.9,3.1,1.3,4.6c0,0.1,0.1,0.2,0.1,0.4c0.1,0.5,0.2,0.9,0.4,1.4c0.1,0.4,0.2,0.7,0.3,1.1c0.1,0.2,0.1,0.5,0.2,0.7
				c0.1,0.6,0.3,1.2,0.4,1.8c2.4,9.7,4.1,18.9,5.4,26.9c0,0.1,0,0.2,0,0.3C268.5,794.03,261.3,846.23,241.5,884.83z M447.1,780.23
				L447.1,780.23c-47,82.2-127.8,128.5-185.2,108.2c0-0.1,0.1-0.1,0.1-0.2c0.1-0.2,0.2-0.3,0.2-0.5c0.3-0.7,0.7-1.4,1-2.1
				c0.2-0.5,0.4-0.9,0.6-1.4c0.4-0.8,0.7-1.6,1.1-2.5c0.2-0.5,0.5-1.1,0.7-1.6c0.3-0.8,0.7-1.6,1-2.5c0.2-0.5,0.4-1.1,0.7-1.6
				c0.4-0.9,0.7-1.8,1-2.7c0.2-0.5,0.4-0.9,0.5-1.4c0.4-1.1,0.8-2.1,1.2-3.2c0.1-0.3,0.2-0.6,0.3-0.9c0.5-1.3,0.9-2.7,1.4-4v-0.1
				c0.9-2.8,1.8-5.6,2.6-8.5c11.9,4.8,24.8,7.2,37.4,7.2c17.2,0,34.1-4.4,48-13.2c4.7-2.9,6.1-9.1,3.1-13.8
				c-2.9-4.7-9.1-6.1-13.8-3.1c-19.5,12.3-46.9,13.5-69.9,3.2c0,0,0,0-0.1,0c6-30.5,6.8-63.7,2.1-97.4v-0.1c0-0.1,0-0.2,0-0.3
				c-0.5-3-1.1-6.1-1.7-9.4c5.1-2,10-1.9,12.2,0.3c3,3.1,3.5,9.6,1.3,17.4c-1.5,5.3,1.6,10.8,6.9,12.3c0.9,0.3,1.8,0.4,2.7,0.4
				c4.4,0,8.4-2.9,9.6-7.3c4.3-15.3,2.1-28.3-6.3-36.8c-7.4-7.5-18.9-9.6-30.7-6c-2-8.2-4.5-16.8-7.5-25.2c-1.1-3.1-3.7-5.5-6.9-6.3
				c-1.2-0.3-2.4-0.4-3.6-0.3c-0.3,0-0.6,0.1-0.8,0.1c-0.1,0-0.2,0-0.4,0.1c-1.1,0.3-2.1,0.7-3,1.3c-0.1,0.1-0.2,0.1-0.3,0.2
				c-0.3,0.2-0.7,0.5-1,0.8c-1.1,1-2.2,1.9-3.3,2.8c-0.9,0.7-1.8,1.5-2.7,2.2c-0.1,0.1-0.2,0.1-0.2,0.2
				c-8.1,6.5-16.6,12.5-25.6,17.9c5.1-13.6,11.6-27.3,19.6-41.6c0.1-0.1,0.1-0.2,0.2-0.3c4.7-9.1,10.8-18.6,18.3-28.7
				c21.2,33.2,50.5,61,85.4,80.8c36.6,20.7,78.6,32,120,32.6C458.7,756.43,453.3,768.23,447.1,780.23z"/>
			<path d="M81.3,820.53c4.9,0,9.2-3.6,10-8.7c0.9-7.3,4.7-11.9,7.7-12.2c4.9-0.4,10.5,3.7,14,10.2c2.6,4.8,8.6,6.7,13.5,4.1
				c4.8-2.6,6.7-8.6,4.1-13.5c-7.3-13.8-20.4-21.9-33.4-20.8c-13.3,1.3-23.6,13.1-25.8,29.6c-0.7,5.5,3.1,10.5,8.6,11.2
				C80.4,820.53,80.9,820.53,81.3,820.53L81.3,820.53z"/>
			<path d="M171.4,809.63c0.5,0.1,0.9,0.1,1.4,0.1h0c4.9,0,9.2-3.6,9.9-8.6c1-6.8,4.8-11.3,7.8-11.6c0.2,0,0.5-0.1,0.7-0.1
				c4.4-0.8,9.7,3.2,13,10c2.5,5,8.4,7,13.4,4.6c5-2.5,7-8.4,4.6-13.4c-7.3-14.9-20.6-23.1-33.9-21c-12.8,1.4-23.2,13.2-25.4,28.7
				C162.1,803.83,165.9,808.83,171.4,809.63z"/>
			<path d="M225.7,841.93c-5.3-1.3-10.8,1.9-12.2,7.2c-5.9,22.4-26,39.6-51.3,43.7c-25.2,3.3-50.3-7.6-62.5-27.2
				c-2.9-4.7-9.1-6.1-13.8-3.2c-4.7,2.9-6.1,9.1-3.2,13.8c14.6,23.3,41.3,37.2,70.2,37.2c4,0,8-0.3,12.1-0.8c0.1,0,0.2,0,0.3,0
				c33.2-5.4,59.7-28.3,67.6-58.5C234.2,848.83,231,843.33,225.7,841.93z"/>
			<polygon points="152.9,913.43 152.9,913.43 152.9,913.43 			"/>
		</g>
	</g>
</g>
<g>
</g>
<g>
</g>
<g>
</g>
<g>
</g>
<g>
</g>
<g>
</g>
<g>
</g>
<g>
</g>
<g>
</g>
<g>
</g>
<g>
</g>
<g>
</g>
<g>
</g>
<g>
</g>
<g>
</g>
</svg>
